<svg width="31" height="21" viewBox="0 0 31 21" fill="none" xmlns="http://www.w3.org/2000/svg">
<path fill-rule="evenodd" clip-rule="evenodd" d="M1.49967 0C1.19026 0 0.893509 0.122917 0.674717 0.341709C0.455924 0.560501 0.333008 0.857247 0.333008 1.16667C0.333008 1.47609 0.455924 1.77283 0.674717 1.99162C0.893509 2.21042 1.19026 2.33333 1.49967 2.33333H29.4997C29.8091 2.33333 30.1058 2.21042 30.3246 1.99162C30.5434 1.77283 30.6663 1.47609 30.6663 1.16667C30.6663 0.857247 30.5434 0.560501 30.3246 0.341709C30.1058 0.122917 29.8091 0 29.4997 0H1.49967ZM0.333008 10.5C0.333008 10.1906 0.455924 9.89383 0.674717 9.67504C0.893509 9.45625 1.19026 9.33333 1.49967 9.33333H29.4997C29.8091 9.33333 30.1058 9.45625 30.3246 9.67504C30.5434 9.89383 30.6663 10.1906 30.6663 10.5C30.6663 10.8094 30.5434 11.1062 30.3246 11.325C30.1058 11.5437 29.8091 11.6667 29.4997 11.6667H1.49967C1.19026 11.6667 0.893509 11.5437 0.674717 11.325C0.455924 11.1062 0.333008 10.8094 0.333008 10.5ZM0.333008 19.8333C0.333008 19.5239 0.455924 19.2272 0.674717 19.0084C0.893509 18.7896 1.19026 18.6667 1.49967 18.6667H29.4997C29.8091 18.6667 30.1058 18.7896 30.3246 19.0084C30.5434 19.2272 30.6663 19.5239 30.6663 19.8333C30.6663 20.1428 30.5434 20.4395 30.3246 20.6583C30.1058 20.8771 29.8091 21 29.4997 21H1.49967C1.19026 21 0.893509 20.8771 0.674717 20.6583C0.455924 20.4395 0.333008 20.1428 0.333008 19.8333Z" fill="black"/>
</svg>
